WhoresΓÇÖ Glory is a cinematic triptych on prostitution: three countries, three languages, three religions. In Thailand, women wait for clients behind glass panes, staring at reflections of themselves. In Bangladesh, men go to a ghetto of love to satisfy their unfulfilled desires on indentured girls. And in Mexico, women pray to a female death to avoid facing their own reality. In worlds where the most intimate act has become a commodity, these women have physically and emotionally experienced everything that can happen between a man and a woman. For this they have always received money, but it has not made their lives rich in anything but stories. ΓÇôThe Match Factory

________________________________________________


General
Complete name : whores'.glory.(2011).dvdrip.x264.ac3.mkv
Format : Matroska
File size : 1.54 GiB
Duration : 1h 54mn
Overall bit rate : 1 938 Kbps

Video
ID : 1
Format : AVC
Format/Info : Advanced Video Codec
Format profile : High@L3.0
Format settings, CABAC : Yes
Format settings, ReFrames : 4 frames
Codec ID : V_MPEG4/ISO/AVC
Duration : 1h 54mn
Bit rate : 1 600 Kbps
Width : 720 pixels
Height : 384 pixels
Display aspect ratio : 1.875
Frame rate mode : Variable
Frame rate : 25.000 fps
Color space : YUV
Chroma subsampling : 4:2:0
Bit depth : 8 bits
Scan type : Progressive
Bits/(Pixel*Frame) : 0.231
Stream size : 1.26 GiB (81%)
Writing library : x264 core 120

Audio
ID : 2
Format : AC-3
Format/Info : Audio Coding 3
Mode extension : CM (complete main)
Codec ID : A_AC3
Duration : 1h 54mn
Bit rate mode : Constant
Bit rate : 320 Kbps
Channel(s) : 2 channels
Channel positions : Front: L R
Sampling rate : 48.0 KHz
Bit depth : 16 bits
Compression mode : Lossy
Stream size : 261 MiB (17%)
Default : Yes
Forced : No

Text #1
ID : 3
Format : VobSub
Codec ID : S_VOBSUB
Codec ID/Info : The same subtitle format used on DVDs
Language : German
Default : No
Forced : No

Text #2
ID : 4
Format : VobSub
Codec ID : S_VOBSUB
Codec ID/Info : The same subtitle format used on DVDs
Language : English
Default : No
Forced : No

Text #3
ID : 5
Format : VobSub
Codec ID : S_VOBSUB
Codec ID/Info : The same subtitle format used on DVDs
Default : No
Forced : No
